<svg width="1440" height="900" viewBox="0 0 1440 900" fill="none" xmlns="http://www.w3.org/2000/svg">
<path fill-rule="evenodd" clip-rule="evenodd" d="M508.234 1000.49C323.451 1001.41 98.8181 969.955 -21.6276 839.563C-142.072 709.172 -96.0342 532.27 -61.5389 383.662C-33.5424 263.051 78.0373 185.411 153.677 84.3376C233.051 -21.7244 236.069 -214.279 392.067 -222.462C558.301 -231.182 639.312 -6.26329 801.362 50.3614C949.838 102.243 1115.92 6.71943 1254.24 78.8036C1414.05 162.092 1538.51 305.4 1576.98 454.578C1618.02 613.695 1615.9 815.725 1465.55 898.154C1308.78 984.097 1076.05 814.403 882.992 835.04C734.597 850.904 659.994 999.73 508.234 1000.49Z" stroke="#51627C" stroke-width="7"/>
</svg>
