<svg id="Layer_1" data-name="Layer 1" xmlns="http://www.w3.org/2000/svg" viewBox="0 0 732.84 611.45"><defs><style>.cls-1{fill:#326273;fill-rule:evenodd;}.cls-2{fill:none;stroke:#eee;stroke-width:7px;}</style></defs><path class="cls-1" d="M-332.11-131.06c40.66-23.89,83.63-35.78,128.4-50.62,64-21.22,126.19-77.92,189.51-54.8S66.55-133.57,95.08-72.61c30.47,65.1,93.58,136.8,61.55,201.15C123.17,195.75,18,173.8-46.61,212.05c-48.76,28.87-69.65,94-123.95,110.2-60.72,18.14-127.48,9.42-184.6-18-61.7-29.66-122.37-74.64-143.61-139.73-20.82-63.82,1.93-134.88,34.91-193.36C-435.88-78.5-381.23-102.21-332.11-131.06Z" transform="translate(567.38 241.92)"/><path class="cls-2" d="M-389.23-96.81c40.67-23.88,83.64-35.77,128.4-50.62,64-21.21,126.2-77.91,189.52-54.8S9.44-99.31,38-38.36C68.43,26.75,131.54,98.45,99.51,162.8,66.06,230-39.12,208.05-103.72,246.3c-48.77,28.87-69.65,94-123.95,110.2-60.73,18.14-127.48,9.42-184.61-18-61.7-29.67-122.36-74.65-143.6-139.73C-576.71,134.91-553.95,63.86-521,5.38-493-44.25-438.35-67.95-389.23-96.81Z" transform="translate(567.38 241.92)"/></svg>